<svg width="105" height="118" xmlns="http://www.w3.org/2000/svg"><g transform="translate(-25 -10)" fill-rule="nonzero" fill="none"><path fill-opacity=".9" fill="#E32182" d="M111.35 51.6L71.75 12 54.78 28.97l39.6 39.6-39.6 39.6 16.97 16.97 39.6-39.6 16.97-16.97z"/><path d="M128.93 67.15L72.37 10.59a1.91 1.91 0 0 0-.83-.47h-.33a1.54 1.54 0 0 0-.31 0h-27a2 2 0 0 0-1.42.59L25.56 27.56l-.05.07c-.07.08-.12.16-.18.24-.06.08-.11.17-.15.26v.26a2.63 2.63 0 0 0-.08.3 2.53 2.53 0 0 0-.1.31 2.81 2.81 0 0 0 0 .29c0 .1 0 .19.08.29.08.1 0 .13 0 .19a.35.35 0 0 1 0 .08c.044.087.094.17.15.25.054.084.114.164.18.24l.06.07 38.28 38.16-38.18 38.18-.06.08-.18.24a2.07 2.07 0 0 0-.15.25.35.35 0 0 1 0 .08v.19a2.45 2.45 0 0 0-.08.29 2.71 2.71 0 0 0 0 .29 2.62 2.62 0 0 0 0 .28c0 .1 0 .2.08.3.08.1 0 .12 0 .18a.35.35 0 0 1 0 .08c.046.091.1.178.16.26.048.083.105.16.17.23a.56.56 0 0 0 .05.08l16.92 17c.376.378.887.59 1.42.59H71c.533 0 1.044-.212 1.42-.59L128.93 70a2 2 0 0 0 .59-1.41 2 2 0 0 0-.59-1.44zM44.32 14.41a1.51 1.51 0 0 0 3-.35V14h3v.06a1.5 1.5 0 0 0 3 0V14h3v.06a1.5 1.5 0 0 0 3 0V14h3v.06a1.5 1.5 0 0 0 3 0V14h.81L53.15 27H53a1.5 1.5 0 1 0-2.38 0H47a1.5 1.5 0 1 0-2.38 0H41a1.5 1.5 0 1 0-2.38 0H35a1.49 1.49 0 0 0-.82-2.36l1.18-1.18a1.5 1.5 0 1 0 1.81-1.82l1.19-1.19a1.5 1.5 0 1 0 1.8-1.81l1.66-1.67v.12a1.5 1.5 0 1 0 1.5-1.5h-.12l1.12-1.18zm14.46 23.27a1.48 1.48 0 0 0 .83-.25l.92.92a1.5 1.5 0 0 0 2.08 2.08l.92.92a1.5 1.5 0 0 0 2.08 2.08l.92.92a1.5 1.5 0 0 0 2.08 2.08l.92.92a1.5 1.5 0 0 0 2.08 2.08l.92.92a1.5 1.5 0 0 0 2.08 2.08l.92.92a1.5 1.5 0 0 0 2.08 2.08l.92.92a1.5 1.5 0 0 0 2.08 2.08l.92.92a1.5 1.5 0 0 0 2.08 2.08l.92.92a1.5 1.5 0 0 0 2.08 2.08l.92.92a1.5 1.5 0 0 0 2.08 2.08l.92.92c-.13.2-.21.431-.23.67l-1.68 1.68A1.47 1.47 0 0 0 87.3 72l-1.68 1.7A1.47 1.47 0 0 0 84.3 75l-1.68 1.7A1.47 1.47 0 0 0 81.3 78l-1.68 1.7A1.47 1.47 0 0 0 78.3 81l-1.68 1.7A1.47 1.47 0 0 0 75.3 84l-1.68 1.7A1.47 1.47 0 0 0 72.3 87l-1.68 1.7A1.47 1.47 0 0 0 69.3 90l-1.68 1.7A1.47 1.47 0 0 0 66.3 93l-.87.87-.81.81A1.47 1.47 0 0 0 63.3 96l-1.68 1.7A1.47 1.47 0 0 0 60.3 99l-1.68 1.7a1.47 1.47 0 0 0-1.32 1.3l-1.68 1.7a1.47 1.47 0 0 0-1.32 1.3l-1.15 1.15H50.9a1.5 1.5 0 1 0-2.24 0H44.9a1.5 1.5 0 1 0-2.24 0H38.9a1.5 1.5 0 1 0-2.24 0H32.9a1.42 1.42 0 0 0 .31-1.41l1.15-1.15c.136.043.277.067.42.07a1.5 1.5 0 0 0 1.5-1.5 1.48 1.48 0 0 0-.07-.42l1.15-1.15c.136.043.277.067.42.07a1.5 1.5 0 0 0 1.5-1.5 1.48 1.48 0 0 0-.07-.42l1.15-1.15c.136.043.277.067.42.07a1.5 1.5 0 0 0 1.5-1.5 1.48 1.48 0 0 0-.07-.42l1.15-1.15c.136.043.277.067.42.07a1.5 1.5 0 0 0 1.5-1.5 1.48 1.48 0 0 0-.07-.42l1.15-1.15c.136.043.277.067.42.07a1.5 1.5 0 0 0 1.5-1.5 1.48 1.48 0 0 0-.07-.42l1.15-1.15c.136.043.277.067.42.07a1.5 1.5 0 0 0 1.5-1.5 1.48 1.48 0 0 0-.07-.42l1.15-1.15c.136.043.277.067.42.07a1.5 1.5 0 0 0 1.5-1.5 1.48 1.48 0 0 0-.07-.42l1.15-1.15c.136.043.277.067.42.07a1.5 1.5 0 0 0 1.5-1.5 1.48 1.48 0 0 0-.07-.42l1.15-1.15c.136.043.277.067.42.07a1.5 1.5 0 0 0 1.5-1.5 1.48 1.48 0 0 0-.07-.42l1.15-1.15c.136.043.277.067.42.07a1.5 1.5 0 0 0 1.5-1.5 1.48 1.48 0 0 0-.07-.42l1.15-1.15c.136.043.277.067.42.07a1.5 1.5 0 0 0 1.5-1.5 1.48 1.48 0 0 0-.07-.42l1.15-1.15c.136.043.277.067.42.07a1.5 1.5 0 0 0 1.5-1.5 1.48 1.48 0 0 0-.84-1.34 2.06 2.06 0 0 0-.45-.69L31.81 31h1.7a1.49 1.49 0 0 0 2.54 0h3.46a1.49 1.49 0 0 0 2.54 0h3.46a1.49 1.49 0 0 0 2.54 0h3.46a1.5 1.5 0 0 0 2.1.46l.92.92a1.5 1.5 0 0 0 2.08 2.08l.92.92a1.48 1.48 0 0 0-.25.83 1.5 1.5 0 0 0 1.5 1.47zM32.33 26.44c.052.192.14.372.26.53h-.79l.53-.53zm0 83.73a1.86 1.86 0 0 0-.06.34 1 1 0 0 0 0 .16l-.5-.5h.56zm7.26 7.83h.19a1.5 1.5 0 1 0-1.5-1.5 1.1 1.1 0 0 0 0 .18L36.61 115h.17a1.5 1.5 0 1 0-1.5-1.5 1.11 1.11 0 0 0 0 .17L33.62 112h.16a1.5 1.5 0 0 0 1.5-1.5 1.86 1.86 0 0 0 0-.34h3.11a1.86 1.86 0 0 0-.06.34 1.5 1.5 0 0 0 3 0 1.86 1.86 0 0 0-.05-.34h3.11a1.86 1.86 0 0 0-.06.34 1.5 1.5 0 0 0 3 0 1.86 1.86 0 0 0-.05-.34h3.11a1.86 1.86 0 0 0-.06.34 1.5 1.5 0 0 0 3 0 1 1 0 0 0 0-.25L55 112h-.23a1.5 1.5 0 1 0 1.5 1.5 1.79 1.79 0 0 0 0-.23L58 115h-.22a1.53 1.53 0 1 0 1.48 1.28L61 118h-.21a1.54 1.54 0 1 0 1.48 1.29L64 121h-.2a1.5 1.5 0 0 0-1.36 2.13h-3.3a1.5 1.5 0 1 0-2.72 0h-3.28a1.5 1.5 0 1 0-2.72 0h-3.28a1.5 1.5 0 1 0-2.86-.63 1.36 1.36 0 0 0 0 .2l-4.69-4.7zm25.55 5.15a1.52 1.52 0 0 0 .14-.63 1.11 1.11 0 0 0 0-.19l.82.82h-.96zm5.81-.83l-14.14-14.15 12.73-12.73L95 70a2 2 0 0 0 .59-1.41 2 2 0 0 0-.59-1.44L56.81 29 71 14.83l53.69 53.74-53.74 53.75z" fill="#2B549D"/><circle fill="#2B549D" cx="37.78" cy="33.18" r="1.5"/><circle fill="#2B549D" cx="40.78" cy="36.18" r="1.5"/><circle fill="#2B549D" cx="43.78" cy="33.18" r="1.5"/><circle fill="#2B549D" cx="49.78" cy="33.18" r="1.5"/><circle fill="#2B549D" cx="46.78" cy="36.18" r="1.5"/><circle fill="#2B549D" cx="52.78" cy="36.18" r="1.5"/><circle fill="#2B549D" cx="43.78" cy="39.18" r="1.5"/><circle fill="#2B549D" cx="49.78" cy="39.18" r="1.5"/><circle fill="#2B549D" cx="46.78" cy="42.18" r="1.5"/><circle fill="#2B549D" cx="52.78" cy="42.18" r="1.5"/><circle fill="#2B549D" cx="49.78" cy="45.18" r="1.5"/><circle fill="#2B549D" cx="52.78" cy="48.18" r="1.5"/><circle fill="#2B549D" cx="55.78" cy="39.18" r="1.5"/><circle fill="#2B549D" cx="58.78" cy="42.18" r="1.5"/><circle fill="#2B549D" cx="55.78" cy="45.18" r="1.5"/><circle fill="#2B549D" cx="61.78" cy="45.18" r="1.5"/><circle fill="#2B549D" cx="58.78" cy="48.18" r="1.5"/><circle fill="#2B549D" cx="64.78" cy="48.18" r="1.5"/><circle fill="#2B549D" cx="55.78" cy="51.18" r="1.5"/><circle fill="#2B549D" cx="61.78" cy="51.18" r="1.5"/><circle fill="#2B549D" cx="58.78" cy="54.18" r="1.5"/><circle fill="#2B549D" cx="64.78" cy="54.18" r="1.5"/><circle fill="#2B549D" cx="67.78" cy="51.18" r="1.5"/><circle fill="#2B549D" cx="70.78" cy="54.18" r="1.5"/><circle fill="#2B549D" cx="61.78" cy="57.18" r="1.5"/><circle fill="#2B549D" cx="64.78" cy="60.18" r="1.5"/><circle fill="#2B549D" cx="67.78" cy="57.18" r="1.5"/><circle fill="#2B549D" cx="73.78" cy="57.18" r="1.5"/><circle fill="#2B549D" cx="70.78" cy="60.18" r="1.5"/><circle fill="#2B549D" cx="76.78" cy="60.18" r="1.5"/><circle fill="#2B549D" cx="67.78" cy="63.18" r="1.5"/><circle fill="#2B549D" cx="73.78" cy="63.18" r="1.5"/><circle fill="#2B549D" cx="70.78" cy="66.18" r="1.5"/><circle fill="#2B549D" cx="76.78" cy="66.18" r="1.5"/><circle fill="#2B549D" cx="73.78" cy="69.18" r="1.5"/><circle fill="#2B549D" cx="70.78" cy="72.18" r="1.5"/><circle fill="#2B549D" cx="76.78" cy="72.18" r="1.5"/><circle fill="#2B549D" cx="64.78" cy="78.18" r="1.5"/><circle fill="#2B549D" cx="67.78" cy="75.18" r="1.5"/><circle fill="#2B549D" cx="73.78" cy="75.18" r="1.5"/><circle fill="#2B549D" cx="70.78" cy="78.18" r="1.5"/><circle fill="#2B549D" cx="76.78" cy="78.18" r="1.5"/><circle fill="#2B549D" cx="61.78" cy="81.18" r="1.5"/><circle fill="#2B549D" cx="58.78" cy="84.18" r="1.5"/><circle fill="#2B549D" cx="64.78" cy="84.18" r="1.5"/><circle fill="#2B549D" cx="67.78" cy="81.18" r="1.5"/><circle fill="#2B549D" cx="73.78" cy="81.18" r="1.5"/><circle fill="#2B549D" cx="70.78" cy="84.18" r="1.5"/><circle fill="#2B549D" cx="52.78" cy="90.18" r="1.5"/><circle fill="#2B549D" cx="49.78" cy="93.18" r="1.5"/><circle fill="#2B549D" cx="46.78" cy="96.18" r="1.5"/><circle fill="#2B549D" cx="52.78" cy="96.18" r="1.5"/><circle fill="#2B549D" cx="40.78" cy="102.18" r="1.5"/><circle fill="#2B549D" cx="43.78" cy="99.18" r="1.5"/><circle fill="#2B549D" cx="49.78" cy="99.18" r="1.5"/><circle fill="#2B549D" cx="46.78" cy="102.18" r="1.5"/><circle fill="#2B549D" cx="52.78" cy="102.18" r="1.5"/><circle fill="#2B549D" cx="55.78" cy="87.18" r="1.5"/><circle fill="#2B549D" cx="61.78" cy="87.18" r="1.5"/><circle fill="#2B549D" cx="58.78" cy="90.18" r="1.5"/><circle fill="#2B549D" cx="64.78" cy="90.18" r="1.5"/><circle fill="#2B549D" cx="67.78" cy="87.18" r="1.5"/><circle fill="#2B549D" cx="55.78" cy="93.18" r="1.5"/><circle fill="#2B549D" cx="61.78" cy="93.18" r="1.5"/><circle fill="#2B549D" cx="58.78" cy="96.18" r="1.5"/><circle fill="#2B549D" cx="55.78" cy="99.18" r="1.5"/><circle fill="#2B549D" cx="79.78" cy="63.18" r="1.5"/><circle fill="#2B549D" cx="82.78" cy="66.18" r="1.5"/><circle fill="#2B549D" cx="79.78" cy="69.18" r="1.5"/><circle fill="#2B549D" cx="85.78" cy="69.18" r="1.5"/><circle fill="#2B549D" cx="82.78" cy="72.18" r="1.5"/><circle fill="#2B549D" cx="79.78" cy="75.18" r="1.5"/><path d="M54.78 18.56a1.5 1.5 0 1 0 0-3 1.5 1.5 0 0 0 0 3z" fill="#2B549D"/><circle fill="#2B549D" cx="60.78" cy="17.06" r="1.5"/><circle fill="#2B549D" cx="57.78" cy="20.06" r="1.5"/><path d="M54.78 21.56a1.5 1.5 0 1 0 0 3 1.5 1.5 0 0 0 0-3zm-6-3a1.5 1.5 0 1 0 0-3 1.5 1.5 0 0 0 0 3z" fill="#2B549D"/><circle fill="#2B549D" cx="45.78" cy="20.06" r="1.5"/><path d="M51.78 21.56a1.5 1.5 0 1 0 0-3 1.5 1.5 0 0 0 0 3zm-3 0a1.5 1.5 0 1 0 0 3 1.5 1.5 0 0 0 0-3z" fill="#2B549D"/><circle fill="#2B549D" cx="42.78" cy="23.06" r="1.5"/><path d="M54.78 121a1.5 1.5 0 1 0 0-3 1.5 1.5 0 0 0 0 3zm-6-3a1.5 1.5 0 1 0 0 3 1.5 1.5 0 0 0 0-3zm-4 1.51a1.5 1.5 0 1 0-3 0 1.5 1.5 0 0 0 3 0z" fill="#2B549D"/><circle fill="#2B549D" cx="45.78" cy="116.51" r="1.5"/><path d="M51.78 118a1.5 1.5 0 1 0 0-3 1.5 1.5 0 0 0 0 3zm-3-3a1.5 1.5 0 1 0 0-3 1.5 1.5 0 0 0 0 3z" fill="#2B549D"/><circle fill="#2B549D" cx="42.78" cy="113.51" r="1.5"/></g></svg>